<svg width="172" height="218" viewBox="0 0 172 218" fill="none" xmlns="http://www.w3.org/2000/svg">
<path d="M16.6314 21.6257C11.7721 22.2595 8.33405 26.7347 8.96787 31.594L32.4578 210.083C33.0916 214.942 37.5668 218.38 42.4261 217.727L163.621 201.766C168.48 201.132 171.918 196.657 171.284 191.798L147.794 13.3091C147.161 8.43059 142.685 5.01179 137.826 5.64561L16.6314 21.6257Z" fill="#007638"/>
<path d="M12.1748 19.3593C7.31552 19.9931 3.87751 24.4683 4.51133 29.3276L28.0012 207.816C28.635 212.675 33.1102 216.113 37.9695 215.48L159.164 199.519C164.024 198.885 167.462 194.41 166.828 189.551L143.357 11.062C142.723 6.18343 138.248 2.76463 133.389 3.39845L12.1748 19.3593Z" fill="white"/>
<path d="M7.7388 16.0365C2.87949 16.6703 -0.558528 21.1455 0.0752956 26.0048L23.5652 204.493C24.199 209.353 28.6742 212.791 33.5335 212.138L154.728 196.177C159.588 195.543 163.026 191.068 162.392 186.209L138.902 7.73914C138.268 2.86062 133.793 -0.558188 128.934 0.0756355L7.7388 16.0365Z" fill="#00A651"/>
<path d="M5.31982 68.3365L15.461 145.413L154.288 127.148L144.146 50.0709L5.31982 68.3365Z" fill="white"/>
<mask id="mask0_1158_1449" style="mask-type:luminance" maskUnits="userSpaceOnUse" x="37" y="59" width="91" height="78">
<path d="M119.21 59.1007L37.3926 69.1495L45.6504 136.384L127.468 126.335L119.21 59.1007Z" fill="white"/>
</mask>
<g mask="url(#mask0_1158_1449)">
<path d="M112.012 124.247L112.684 124.171L112.761 124.747C112.837 125.342 112.703 125.592 112.3 125.65C111.935 125.688 111.781 125.457 111.743 125.073L111.359 122C111.301 121.501 111.493 121.309 111.743 121.29C112.146 121.232 112.357 121.443 112.473 122.346L113.452 122.231L113.414 121.847C113.298 120.944 112.684 120.252 111.647 120.387C110.629 120.521 110.206 121.27 110.321 122.115L110.706 125.208C110.821 126.168 111.474 126.667 112.28 126.571C112.761 126.514 112.991 126.322 113.26 125.918L113.51 126.341L114.009 126.283L113.644 123.249L111.935 123.46L112.012 124.247ZM106.691 127.167L106.23 123.422H106.25L108.036 127.013L108.939 126.898L108.209 120.886L107.268 121.001L107.69 124.44H107.671L105.981 121.155L105.02 121.27L105.75 127.282L106.691 127.167ZM101.121 123.249C101.064 122.807 101.179 122.576 101.602 122.519C102.024 122.461 102.178 122.672 102.235 123.114L102.6 126.149C102.658 126.591 102.543 126.84 102.12 126.879C101.698 126.936 101.544 126.725 101.486 126.283L101.121 123.249ZM100.449 126.437C100.545 127.282 101.141 127.916 102.235 127.781C103.33 127.647 103.733 126.898 103.637 126.053L103.253 122.961C103.138 122.115 102.562 121.482 101.467 121.616C100.372 121.751 99.9689 122.5 100.065 123.345L100.449 126.437ZM98.298 123.479C98.1059 122.634 97.5297 122.096 96.6846 122.192C95.6666 122.327 95.148 122.922 95.2633 123.883C95.4746 125.592 97.6257 125.65 97.7602 126.84C97.7986 127.205 97.5873 127.417 97.2224 127.455C96.8767 127.493 96.6078 127.224 96.4925 126.629L95.5322 126.898C95.6858 127.781 96.3389 128.492 97.2992 128.377C98.2788 128.262 98.8742 127.628 98.7589 126.629C98.5668 124.997 96.3965 124.766 96.262 123.748C96.2236 123.383 96.3773 123.133 96.7038 123.095C96.9343 123.076 97.2416 123.172 97.3376 123.69L98.298 123.479ZM91.6524 124.939L91.5948 124.497C91.4796 123.594 90.8841 122.903 89.847 123.037C88.7522 123.172 88.3296 123.921 88.4449 124.766L88.829 127.858C88.925 128.703 89.5205 129.337 90.6152 129.203C91.6524 129.068 92.075 128.319 91.9597 127.474L91.8829 126.783L90.8457 126.917L90.9418 127.647C90.9802 128.031 90.8841 128.262 90.5192 128.319C90.0967 128.377 89.943 128.166 89.8854 127.724L89.5205 124.689C89.4628 124.247 89.5781 123.998 90.0006 123.959C90.2695 123.921 90.5192 124.113 90.596 124.632L90.6536 125.093L91.6524 124.939ZM84.373 125.304C84.3154 124.862 84.4307 124.632 84.8532 124.574C85.2758 124.516 85.4294 124.728 85.487 125.169L85.852 128.204C85.9096 128.646 85.7943 128.895 85.391 128.934C84.9877 128.972 84.8148 128.78 84.7572 128.338L84.373 125.304ZM83.72 128.492C83.816 129.337 84.4115 129.971 85.5062 129.837C86.601 129.702 87.0044 128.953 86.9083 128.108L86.5242 125.016C86.4282 124.171 85.8328 123.537 84.738 123.671C83.6432 123.806 83.2398 124.555 83.3359 125.4L83.72 128.492ZM78.5918 129.068C78.7262 130.106 79.3985 130.586 80.378 130.47C81.3576 130.355 81.8954 129.702 81.7801 128.684L81.2231 124.19L80.186 124.324L80.743 128.857C80.8006 129.299 80.6469 129.529 80.2628 129.587C79.8787 129.645 79.6866 129.433 79.629 128.992L79.072 124.459L78.0348 124.593L78.5918 129.068ZM76.3062 126.821L76.2486 126.379C76.1333 125.477 75.5379 124.785 74.5008 124.92C73.406 125.054 72.9834 125.803 73.0987 126.648L73.4828 129.741C73.5788 130.586 74.1742 131.22 75.269 131.085C76.3062 130.951 76.7287 130.202 76.6135 129.356L76.5367 128.665L75.4995 128.799L75.5955 129.529C75.6532 129.913 75.5379 130.144 75.173 130.202C74.7504 130.259 74.5968 130.048 74.5392 129.606L74.155 126.571C74.0974 126.13 74.2127 125.899 74.616 125.842C74.8849 125.803 75.1538 125.995 75.2114 126.495L75.269 126.956L76.3062 126.821ZM68.9884 125.688L67.9512 125.822L68.6811 131.834L69.7183 131.7L68.9884 125.688ZM63.9946 127.801C63.937 127.359 64.0523 127.109 64.4748 127.071C64.8974 127.013 65.051 127.224 65.1086 127.666L65.4736 130.701C65.5312 131.143 65.4159 131.392 64.9934 131.431C64.5708 131.488 64.4172 131.277 64.3596 130.835L63.9946 127.801ZM63.3416 131.008C63.4376 131.853 64.0331 132.487 65.1278 132.353C66.2226 132.218 66.626 131.469 66.5299 130.624L66.1458 127.532C66.0498 126.687 65.4544 126.053 64.3596 126.187C63.2648 126.322 62.8614 127.071 62.9575 127.916L63.3416 131.008ZM59.9996 131.027L58.7128 126.956L57.6948 127.09L59.6923 132.929L60.7295 132.794L61.2481 126.629L60.2301 126.764L59.9996 131.027Z" fill="#72BF44"/>
</g>
<mask id="mask1_1158_1449" style="mask-type:luminance" maskUnits="userSpaceOnUse" x="37" y="59" width="91" height="78">
<path d="M119.21 59.1007L37.3926 69.1495L45.6504 136.384L127.468 126.335L119.21 59.1007Z" fill="white"/>
</mask>
<g mask="url(#mask1_1158_1449)">
<path d="M112.012 124.247L112.684 124.171L112.761 124.747C112.837 125.342 112.703 125.592 112.3 125.65C111.935 125.688 111.781 125.457 111.743 125.073L111.359 122C111.301 121.501 111.493 121.309 111.743 121.29C112.146 121.232 112.357 121.443 112.473 122.346L113.452 122.231L113.414 121.847C113.298 120.944 112.684 120.252 111.647 120.387C110.629 120.521 110.206 121.27 110.321 122.115L110.706 125.208C110.821 126.168 111.474 126.667 112.28 126.571C112.761 126.514 112.991 126.322 113.26 125.918L113.51 126.341L114.009 126.283L113.644 123.249L111.935 123.46L112.012 124.247ZM106.691 127.167L106.23 123.422H106.25L108.036 127.013L108.939 126.898L108.209 120.886L107.268 121.001L107.69 124.44H107.671L105.981 121.155L105.02 121.27L105.75 127.282L106.691 127.167ZM101.121 123.249C101.064 122.807 101.179 122.576 101.602 122.519C102.024 122.461 102.178 122.672 102.235 123.114L102.6 126.149C102.658 126.591 102.543 126.84 102.12 126.879C101.698 126.936 101.544 126.725 101.486 126.283L101.121 123.249ZM100.449 126.437C100.545 127.282 101.141 127.916 102.235 127.781C103.33 127.647 103.733 126.898 103.637 126.053L103.253 122.961C103.138 122.115 102.562 121.482 101.467 121.616C100.372 121.751 99.9689 122.5 100.065 123.345L100.449 126.437ZM98.298 123.479C98.1059 122.634 97.5297 122.096 96.6846 122.192C95.6666 122.327 95.148 122.922 95.2633 123.883C95.4746 125.592 97.6257 125.65 97.7602 126.84C97.7986 127.205 97.5873 127.417 97.2224 127.455C96.8767 127.493 96.6078 127.224 96.4925 126.629L95.5322 126.898C95.6858 127.781 96.3389 128.492 97.2992 128.377C98.2788 128.262 98.8742 127.628 98.7589 126.629C98.5668 124.997 96.3965 124.766 96.262 123.748C96.2236 123.383 96.3773 123.133 96.7038 123.095C96.9343 123.076 97.2416 123.172 97.3376 123.69L98.298 123.479ZM91.6524 124.939L91.5948 124.497C91.4796 123.594 90.8841 122.903 89.847 123.037C88.7522 123.172 88.3296 123.921 88.4449 124.766L88.829 127.858C88.925 128.703 89.5205 129.337 90.6152 129.203C91.6524 129.068 92.075 128.319 91.9597 127.474L91.8829 126.783L90.8457 126.917L90.9418 127.647C90.9802 128.031 90.8841 128.262 90.5192 128.319C90.0967 128.377 89.943 128.166 89.8854 127.724L89.5205 124.689C89.4628 124.247 89.5781 123.998 90.0006 123.959C90.2695 123.921 90.5192 124.113 90.596 124.632L90.6536 125.093L91.6524 124.939ZM84.373 125.304C84.3154 124.862 84.4307 124.632 84.8532 124.574C85.2758 124.516 85.4294 124.728 85.487 125.169L85.852 128.204C85.9096 128.646 85.7943 128.895 85.391 128.934C84.9877 128.972 84.8148 128.78 84.7572 128.338L84.373 125.304ZM83.72 128.492C83.816 129.337 84.4115 129.971 85.5062 129.837C86.601 129.702 87.0044 128.953 86.9083 128.108L86.5242 125.016C86.4282 124.171 85.8328 123.537 84.738 123.671C83.6432 123.806 83.2398 124.555 83.3359 125.4L83.72 128.492ZM78.5918 129.068C78.7262 130.106 79.3985 130.586 80.378 130.47C81.3576 130.355 81.8954 129.702 81.7801 128.684L81.2231 124.19L80.186 124.324L80.743 128.857C80.8006 129.299 80.6469 129.529 80.2628 129.587C79.8787 129.645 79.6866 129.433 79.629 128.992L79.072 124.459L78.0348 124.593L78.5918 129.068ZM76.3062 126.821L76.2486 126.379C76.1333 125.477 75.5379 124.785 74.5008 124.92C73.406 125.054 72.9834 125.803 73.0987 126.648L73.4828 129.741C73.5788 130.586 74.1742 131.22 75.269 131.085C76.3062 130.951 76.7287 130.202 76.6135 129.356L76.5367 128.665L75.4995 128.799L75.5955 129.529C75.6532 129.913 75.5379 130.144 75.173 130.202C74.7504 130.259 74.5968 130.048 74.5392 129.606L74.155 126.571C74.0974 126.13 74.2127 125.899 74.616 125.842C74.8849 125.803 75.1538 125.995 75.2114 126.495L75.269 126.956L76.3062 126.821ZM68.9884 125.688L67.9512 125.822L68.6811 131.834L69.7183 131.7L68.9884 125.688ZM63.9946 127.801C63.937 127.359 64.0523 127.109 64.4748 127.071C64.8974 127.013 65.051 127.224 65.1086 127.666L65.4736 130.701C65.5312 131.143 65.4159 131.392 64.9934 131.431C64.5708 131.488 64.4172 131.277 64.3596 130.835L63.9946 127.801ZM63.3416 131.008C63.4376 131.853 64.0331 132.487 65.1278 132.353C66.2226 132.218 66.626 131.469 66.5299 130.624L66.1458 127.532C66.0498 126.687 65.4544 126.053 64.3596 126.187C63.2648 126.322 62.8614 127.071 62.9575 127.916L63.3416 131.008ZM59.9996 131.027L58.7128 126.956L57.6948 127.09L59.6923 132.929L60.7295 132.794L61.2481 126.629L60.2301 126.764L59.9996 131.027Z" stroke="white" stroke-width="0.363"/>
</g>
<mask id="mask2_1158_1449" style="mask-type:luminance" maskUnits="userSpaceOnUse" x="37" y="59" width="91" height="78">
<path d="M119.21 59.1007L37.3926 69.1495L45.6504 136.384L127.468 126.335L119.21 59.1007Z" fill="white"/>
</mask>
<g mask="url(#mask2_1158_1449)">
<path d="M64.1499 125.822L64.6877 124.708L65.8017 124.574L64.8606 125.726L64.1499 125.822Z" fill="#72BF44"/>
</g>
<mask id="mask3_1158_1449" style="mask-type:luminance" maskUnits="userSpaceOnUse" x="37" y="59" width="91" height="78">
<path d="M119.21 59.1007L37.3926 69.1495L45.6504 136.384L127.468 126.335L119.21 59.1007Z" fill="white"/>
</mask>
<g mask="url(#mask3_1158_1449)">
<path d="M64.1499 125.822L64.6877 124.708L65.8017 124.574L64.8606 125.726L64.1499 125.822Z" stroke="white" stroke-width="0.363"/>
</g>
<mask id="mask4_1158_1449" style="mask-type:luminance" maskUnits="userSpaceOnUse" x="37" y="59" width="91" height="78">
<path d="M119.21 59.1007L37.3926 69.1495L45.6504 136.384L127.468 126.335L119.21 59.1007Z" fill="white"/>
</mask>
<g mask="url(#mask4_1158_1449)">
<path d="M65.5708 125.419L66.3199 125.323L66.3967 125.918C66.4351 126.168 66.3967 126.36 66.2815 126.495C66.1662 126.648 65.9934 126.725 65.7437 126.764L65.7052 126.456C65.8013 126.437 65.8781 126.399 65.9357 126.322C65.9934 126.245 66.0126 126.187 66.0126 126.091L65.686 126.13L65.5708 125.419Z" fill="#72BF44"/>
</g>
<mask id="mask5_1158_1449" style="mask-type:luminance" maskUnits="userSpaceOnUse" x="37" y="59" width="91" height="78">
<path d="M119.21 59.1007L37.3926 69.1495L45.6504 136.384L127.468 126.335L119.21 59.1007Z" fill="white"/>
</mask>
<g mask="url(#mask5_1158_1449)">
<path d="M65.5708 125.419L66.3199 125.323L66.3967 125.918C66.4351 126.168 66.3967 126.36 66.2815 126.495C66.1662 126.648 65.9934 126.725 65.7437 126.764L65.7052 126.456C65.8013 126.437 65.8781 126.399 65.9357 126.322C65.9934 126.245 66.0126 126.187 66.0126 126.091L65.686 126.13L65.5708 125.419Z" stroke="white" stroke-width="0.363"/>
</g>
<mask id="mask6_1158_1449" style="mask-type:luminance" maskUnits="userSpaceOnUse" x="37" y="59" width="91" height="78">
<path d="M119.21 59.1007L37.3926 69.1495L45.6504 136.384L127.468 126.335L119.21 59.1007Z" fill="white"/>
</mask>
<g mask="url(#mask6_1158_1449)">
<path d="M84.2011 122.442L85.0846 122.327L86.0449 123.249L85.2382 123.364L84.7004 122.826L84.3163 123.46L83.5288 123.575L84.2011 122.442Z" fill="#72BF44"/>
</g>
<mask id="mask7_1158_1449" style="mask-type:luminance" maskUnits="userSpaceOnUse" x="37" y="59" width="91" height="78">
<path d="M119.21 59.1007L37.3926 69.1495L45.6504 136.384L127.468 126.335L119.21 59.1007Z" fill="white"/>
</mask>
<g mask="url(#mask7_1158_1449)">
<path d="M84.2011 122.442L85.0846 122.327L86.0449 123.249L85.2382 123.364L84.7004 122.826L84.3163 123.46L83.5288 123.575L84.2011 122.442Z" stroke="white" stroke-width="0.363"/>
</g>
<mask id="mask8_1158_1449" style="mask-type:luminance" maskUnits="userSpaceOnUse" x="37" y="59" width="91" height="78">
<path d="M119.21 59.1007L37.3926 69.1495L45.6504 136.384L127.468 126.335L119.21 59.1007Z" fill="white"/>
</mask>
<g mask="url(#mask8_1158_1449)">
<path d="M100.892 120.387L101.775 120.272L102.716 121.213L101.91 121.309L101.391 120.79L101.007 121.424L100.2 121.52L100.892 120.387Z" fill="#72BF44"/>
</g>
<mask id="mask9_1158_1449" style="mask-type:luminance" maskUnits="userSpaceOnUse" x="37" y="59" width="91" height="78">
<path d="M119.21 59.1007L37.3926 69.1495L45.6504 136.384L127.468 126.335L119.21 59.1007Z" fill="white"/>
</mask>
<g mask="url(#mask9_1158_1449)">
<path d="M100.892 120.387L101.775 120.272L102.716 121.213L101.91 121.309L101.391 120.79L101.007 121.424L100.2 121.52L100.892 120.387Z" stroke="white" stroke-width="0.363"/>
</g>
<mask id="mask10_1158_1449" style="mask-type:luminance" maskUnits="userSpaceOnUse" x="37" y="59" width="91" height="78">
<path d="M119.21 59.1007L37.3926 69.1495L45.6504 136.384L127.468 126.335L119.21 59.1007Z" fill="white"/>
</mask>
<g mask="url(#mask10_1158_1449)">
<path d="M102.428 121.213L102.966 120.099L104.06 119.964L103.138 121.136L102.428 121.213Z" fill="#72BF44"/>
</g>
<mask id="mask11_1158_1449" style="mask-type:luminance" maskUnits="userSpaceOnUse" x="37" y="59" width="91" height="78">
<path d="M119.21 59.1007L37.3926 69.1495L45.6504 136.384L127.468 126.335L119.21 59.1007Z" fill="white"/>
</mask>
<g mask="url(#mask11_1158_1449)">
<path d="M102.428 121.213L102.966 120.099L104.06 119.964L103.138 121.136L102.428 121.213Z" stroke="white" stroke-width="0.363"/>
</g>
<mask id="mask12_1158_1449" style="mask-type:luminance" maskUnits="userSpaceOnUse" x="30" y="55" width="97" height="87">
<path d="M112.405 55.5345L30.2402 78.7991L44.4514 141.212L126.616 117.948L112.405 55.5345Z" fill="white"/>
</mask>
<g mask="url(#mask12_1158_1449)">
<path d="M86.0292 130.279L85.2129 130.397L85.2926 131.16L86.109 131.042L86.0292 130.279Z" fill="#72BF44"/>
</g>
<mask id="mask13_1158_1449" style="mask-type:luminance" maskUnits="userSpaceOnUse" x="30" y="55" width="97" height="87">
<path d="M112.405 55.5345L30.2402 78.7991L44.4514 141.212L126.616 117.948L112.405 55.5345Z" fill="white"/>
</mask>
<g mask="url(#mask13_1158_1449)">
<path d="M86.0292 130.279L85.2129 130.397L85.2926 131.16L86.109 131.042L86.0292 130.279Z" stroke="white" stroke-width="0.363"/>
</g>
<mask id="mask14_1158_1449" style="mask-type:luminance" maskUnits="userSpaceOnUse" x="37" y="59" width="91" height="78">
<path d="M119.21 59.1007L37.3926 69.1495L45.6504 136.384L127.468 126.335L119.21 59.1007Z" fill="white"/>
</mask>
<g mask="url(#mask14_1158_1449)">
<path d="M58.482 115.681L59.3655 115.585L60.3066 116.507L59.4999 116.603L58.9813 116.085L58.5972 116.718L57.7905 116.814L58.482 115.681Z" fill="#D2AA56"/>
</g>
<mask id="mask15_1158_1449" style="mask-type:luminance" maskUnits="userSpaceOnUse" x="37" y="59" width="91" height="78">
<path d="M119.21 59.1007L37.3926 69.1495L45.6504 136.384L127.468 126.335L119.21 59.1007Z" fill="white"/>
</mask>
<g mask="url(#mask15_1158_1449)">
<path d="M58.482 115.681L59.3655 115.585L60.3066 116.507L59.4999 116.603L58.9813 116.085L58.5972 116.718L57.7905 116.814L58.482 115.681Z" stroke="white" stroke-width="0.363"/>
</g>
<mask id="mask16_1158_1449" style="mask-type:luminance" maskUnits="userSpaceOnUse" x="37" y="59" width="91" height="78">
<path d="M119.21 59.1007L37.3926 69.1495L45.6504 136.384L127.468 126.335L119.21 59.1007Z" fill="white"/>
</mask>
<g mask="url(#mask16_1158_1449)">
<path d="M60.0005 116.507L60.5575 115.393L61.6523 115.259L60.7303 116.43L60.0005 116.507Z" fill="#D2AA56"/>
</g>
<mask id="mask17_1158_1449" style="mask-type:luminance" maskUnits="userSpaceOnUse" x="37" y="59" width="91" height="78">
<path d="M119.21 59.1007L37.3926 69.1495L45.6504 136.384L127.468 126.335L119.21 59.1007Z" fill="white"/>
</mask>
<g mask="url(#mask17_1158_1449)">
<path d="M60.0005 116.507L60.5575 115.393L61.6523 115.259L60.7303 116.43L60.0005 116.507Z" stroke="white" stroke-width="0.363"/>
</g>
<mask id="mask18_1158_1449" style="mask-type:luminance" maskUnits="userSpaceOnUse" x="37" y="59" width="91" height="78">
<path d="M119.21 59.1007L37.3926 69.1495L45.6504 136.384L127.468 126.335L119.21 59.1007Z" fill="white"/>
</mask>
<g mask="url(#mask18_1158_1449)">
<path d="M74.521 113.722L75.4045 113.607L76.3457 114.548L75.539 114.644L75.0204 114.106L74.6171 114.759L73.8296 114.855L74.521 113.722Z" fill="#D2AA56"/>
</g>
<mask id="mask19_1158_1449" style="mask-type:luminance" maskUnits="userSpaceOnUse" x="37" y="59" width="91" height="78">
<path d="M119.21 59.1007L37.3926 69.1495L45.6504 136.384L127.468 126.335L119.21 59.1007Z" fill="white"/>
</mask>
<g mask="url(#mask19_1158_1449)">
<path d="M74.521 113.722L75.4045 113.607L76.3457 114.548L75.539 114.644L75.0204 114.106L74.6171 114.759L73.8296 114.855L74.521 113.722Z" stroke="white" stroke-width="0.363"/>
</g>
<mask id="mask20_1158_1449" style="mask-type:luminance" maskUnits="userSpaceOnUse" x="37" y="59" width="91" height="78">
<path d="M119.21 59.1007L37.3926 69.1495L45.6504 136.384L127.468 126.335L119.21 59.1007Z" fill="white"/>
</mask>
<g mask="url(#mask20_1158_1449)">
<path d="M75.9814 114.548L76.5192 113.434L77.614 113.299L76.6921 114.471L75.9814 114.548Z" fill="#D2AA56"/>
</g>
<mask id="mask21_1158_1449" style="mask-type:luminance" maskUnits="userSpaceOnUse" x="37" y="59" width="91" height="78">
<path d="M119.21 59.1007L37.3926 69.1495L45.6504 136.384L127.468 126.335L119.21 59.1007Z" fill="white"/>
</mask>
<g mask="url(#mask21_1158_1449)">
<path d="M75.9814 114.548L76.5192 113.434L77.614 113.299L76.6921 114.471L75.9814 114.548Z" stroke="white" stroke-width="0.363"/>
</g>
<mask id="mask22_1158_1449" style="mask-type:luminance" maskUnits="userSpaceOnUse" x="37" y="59" width="91" height="78">
<path d="M119.21 59.1007L37.3926 69.1495L45.6504 136.384L127.468 126.335L119.21 59.1007Z" fill="white"/>
</mask>
<g mask="url(#mask22_1158_1449)">
<path d="M108.344 110.591L108.882 109.477L109.976 109.343L109.054 110.495L108.344 110.591Z" fill="#D2AA56"/>
</g>
<mask id="mask23_1158_1449" style="mask-type:luminance" maskUnits="userSpaceOnUse" x="37" y="59" width="91" height="78">
<path d="M119.21 59.1007L37.3926 69.1495L45.6504 136.384L127.468 126.335L119.21 59.1007Z" fill="white"/>
</mask>
<g mask="url(#mask23_1158_1449)">
<path d="M108.344 110.591L108.882 109.477L109.976 109.343L109.054 110.495L108.344 110.591Z" stroke="white" stroke-width="0.363"/>
</g>
<mask id="mask24_1158_1449" style="mask-type:luminance" maskUnits="userSpaceOnUse" x="37" y="59" width="91" height="78">
<path d="M119.21 59.1007L37.3926 69.1495L45.6504 136.384L127.468 126.335L119.21 59.1007Z" fill="white"/>
</mask>
<g mask="url(#mask24_1158_1449)">
<path d="M110.187 110.015L110.936 109.919L111.013 110.514C111.032 110.764 110.994 110.956 110.898 111.091C110.782 111.244 110.61 111.321 110.36 111.36L110.321 111.052C110.417 111.033 110.494 110.995 110.552 110.918C110.61 110.841 110.629 110.783 110.629 110.687L110.283 110.726L110.187 110.015Z" fill="#D2AA56"/>
</g>
<mask id="mask25_1158_1449" style="mask-type:luminance" maskUnits="userSpaceOnUse" x="37" y="59" width="91" height="78">
<path d="M119.21 59.1007L37.3926 69.1495L45.6504 136.384L127.468 126.335L119.21 59.1007Z" fill="white"/>
</mask>
<g mask="url(#mask25_1158_1449)">
<path d="M110.187 110.015L110.936 109.919L111.013 110.514C111.032 110.764 110.994 110.956 110.898 111.091C110.782 111.244 110.61 111.321 110.36 111.36L110.321 111.052C110.417 111.033 110.494 110.995 110.552 110.918C110.61 110.841 110.629 110.783 110.629 110.687L110.283 110.726L110.187 110.015Z" stroke="white" stroke-width="0.363"/>
</g>
<mask id="mask26_1158_1449" style="mask-type:luminance" maskUnits="userSpaceOnUse" x="37" y="59" width="91" height="78">
<path d="M119.21 59.1007L37.3926 69.1495L45.6504 136.384L127.468 126.335L119.21 59.1007Z" fill="white"/>
</mask>
<g mask="url(#mask26_1158_1449)">
<path d="M115.584 112.147L115.527 111.705C115.411 110.803 114.816 110.111 113.779 110.246C112.684 110.38 112.281 111.129 112.377 111.974L112.761 115.067C112.857 115.912 113.452 116.545 114.547 116.411C115.584 116.277 116.007 115.528 115.891 114.682L115.815 113.991L114.777 114.125L114.873 114.855C114.912 115.239 114.816 115.47 114.451 115.528C114.028 115.585 113.875 115.374 113.817 114.932L113.452 111.897C113.395 111.456 113.51 111.225 113.913 111.168C114.182 111.129 114.432 111.321 114.509 111.821L114.566 112.282L115.584 112.147ZM107.652 115.643C107.786 116.68 108.458 117.16 109.438 117.045C110.418 116.93 110.955 116.277 110.84 115.259L110.283 110.764L109.246 110.899L109.803 115.431C109.861 115.873 109.707 116.104 109.323 116.161C108.939 116.2 108.747 116.008 108.689 115.566L108.132 111.033L107.095 111.168L107.652 115.643ZM103.753 117.659L103.426 114.99L104.521 114.855L104.848 117.525L105.885 117.391L105.155 111.379L104.118 111.513L104.425 113.953L103.311 114.087L103.004 111.648L101.967 111.782L102.696 117.794L103.753 117.659ZM99.1432 118.216L100.18 118.082L99.5465 112.973L100.545 112.858L100.43 111.955L97.3761 112.32L97.4914 113.223L98.4901 113.107L99.1432 118.216ZM93.8613 112.781L92.8241 112.915L93.554 118.927L94.5911 118.793L93.8613 112.781ZM89.2901 116.93C89.4821 116.91 89.6934 116.872 89.8279 116.834L90.865 119.234L91.9214 119.1L90.7114 116.488C91.0379 116.296 91.3836 115.854 91.2492 114.894C91.0955 113.607 90.4425 113.203 89.2709 113.338L87.8111 113.511L88.541 119.523L89.5782 119.388L89.2901 116.93ZM88.9636 114.241L89.3285 114.202C89.8855 114.125 90.116 114.317 90.212 115.028C90.308 115.739 90.116 115.969 89.559 116.046L89.194 116.085L88.9636 114.241ZM84.9685 119.964L86.0057 119.83L85.3719 114.721L86.3706 114.606L86.2554 113.703L83.2015 114.068L83.3168 114.971L84.3155 114.855L84.9685 119.964ZM79.6867 114.51L78.6495 114.644L79.3794 120.656L80.4165 120.521L79.6867 114.51ZM74.6929 116.641C74.6353 116.2 74.7505 115.969 75.1539 115.912C75.5764 115.854 75.7301 116.065 75.7877 116.507L76.1526 119.561C76.2103 120.003 76.095 120.233 75.6725 120.291C75.2499 120.348 75.0963 120.137 75.0386 119.695L74.6929 116.641ZM74.0399 119.83C74.1359 120.675 74.7313 121.309 75.8261 121.174C76.9209 121.04 77.3242 120.291 77.2282 119.446L76.8441 116.353C76.748 115.508 76.1526 114.874 75.0578 115.009C73.9631 115.143 73.5597 115.892 73.6558 116.738L74.0399 119.83ZM70.0449 121.808L69.5839 118.063H69.6031L71.3894 121.654L72.2921 121.539L71.5622 115.528L70.6211 115.643L71.0436 119.081H71.0244L69.3342 115.796L68.3739 115.912L69.1037 121.923L70.0449 121.808ZM63.6682 122.576L64.7054 122.442L64.0716 117.333L65.0703 117.218L64.9551 116.315L61.9012 116.68L62.0164 117.583L63.0152 117.448L63.6682 122.576ZM61.3058 122.864L61.1906 121.962L59.3275 122.192L59.1162 120.444L60.4607 120.291L60.3455 119.388L59.001 119.542L58.8089 118.005L60.5567 117.794L60.4415 116.891L57.6565 117.237L58.3864 123.249L61.3058 122.864ZM54.7563 123.671L54.4874 121.539L54.7755 120.829H54.7947L55.9855 123.518L57.0419 123.383L55.3133 119.772L56.1584 117.391L55.1212 117.525L54.3145 119.887H54.2953L54.0264 117.659L52.9893 117.794L53.7191 123.806L54.7563 123.671Z" fill="#D2AA56"/>
</g>
<mask id="mask27_1158_1449" style="mask-type:luminance" maskUnits="userSpaceOnUse" x="37" y="59" width="91" height="78">
<path d="M119.21 59.1007L37.3926 69.1495L45.6504 136.384L127.468 126.335L119.21 59.1007Z" fill="white"/>
</mask>
<g mask="url(#mask27_1158_1449)">
<path d="M115.584 112.147L115.527 111.705C115.411 110.803 114.816 110.111 113.779 110.246C112.684 110.38 112.281 111.129 112.377 111.974L112.761 115.067C112.857 115.912 113.452 116.545 114.547 116.411C115.584 116.277 116.007 115.528 115.891 114.682L115.815 113.991L114.777 114.125L114.873 114.855C114.912 115.239 114.816 115.47 114.451 115.528C114.028 115.585 113.875 115.374 113.817 114.932L113.452 111.897C113.395 111.456 113.51 111.225 113.913 111.168C114.182 111.129 114.432 111.321 114.509 111.821L114.566 112.282L115.584 112.147ZM107.652 115.643C107.786 116.68 108.458 117.16 109.438 117.045C110.418 116.93 110.955 116.277 110.84 115.259L110.283 110.764L109.246 110.899L109.803 115.431C109.861 115.873 109.707 116.104 109.323 116.161C108.939 116.2 108.747 116.008 108.689 115.566L108.132 111.033L107.095 111.168L107.652 115.643ZM103.753 117.659L103.426 114.99L104.521 114.855L104.848 117.525L105.885 117.391L105.155 111.379L104.118 111.513L104.425 113.953L103.311 114.087L103.004 111.648L101.967 111.782L102.696 117.794L103.753 117.659ZM99.1432 118.216L100.18 118.082L99.5465 112.973L100.545 112.858L100.43 111.955L97.3761 112.32L97.4914 113.223L98.4901 113.107L99.1432 118.216ZM93.8613 112.781L92.8241 112.915L93.554 118.927L94.5911 118.793L93.8613 112.781ZM89.2901 116.93C89.4821 116.91 89.6934 116.872 89.8279 116.834L90.865 119.234L91.9214 119.1L90.7114 116.488C91.0379 116.296 91.3836 115.854 91.2492 114.894C91.0955 113.607 90.4425 113.203 89.2709 113.338L87.8112 113.511L88.541 119.523L89.5782 119.388L89.2901 116.93ZM88.9636 114.241L89.3285 114.202C89.8855 114.125 90.116 114.317 90.212 115.028C90.308 115.739 90.116 115.969 89.559 116.046L89.194 116.085L88.9636 114.241ZM84.9685 119.964L86.0057 119.83L85.3719 114.721L86.3706 114.606L86.2554 113.703L83.2015 114.068L83.3168 114.971L84.3155 114.855L84.9685 119.964ZM79.6867 114.51L78.6495 114.644L79.3794 120.656L80.4165 120.521L79.6867 114.51ZM74.6929 116.641C74.6353 116.2 74.7505 115.969 75.1539 115.912C75.5764 115.854 75.7301 116.065 75.7877 116.507L76.1526 119.561C76.2103 120.003 76.095 120.233 75.6725 120.291C75.2499 120.348 75.0963 120.137 75.0386 119.695L74.6929 116.641ZM74.0399 119.83C74.1359 120.675 74.7313 121.309 75.8261 121.174C76.9209 121.04 77.3242 120.291 77.2282 119.446L76.8441 116.353C76.748 115.508 76.1526 114.874 75.0579 115.009C73.9631 115.143 73.5597 115.892 73.6558 116.738L74.0399 119.83ZM70.0449 121.808L69.5839 118.063H69.6031L71.3894 121.654L72.2921 121.539L71.5622 115.528L70.6211 115.643L71.0436 119.081H71.0244L69.3342 115.796L68.3739 115.912L69.1037 121.923L70.0449 121.808ZM63.6682 122.576L64.7054 122.442L64.0716 117.333L65.0703 117.218L64.9551 116.315L61.9012 116.68L62.0164 117.583L63.0152 117.448L63.6682 122.576ZM61.3058 122.864L61.1906 121.962L59.3275 122.192L59.1162 120.444L60.4607 120.291L60.3455 119.388L59.001 119.542L58.8089 118.005L60.5567 117.794L60.4415 116.891L57.6565 117.237L58.3864 123.249L61.3058 122.864ZM54.7563 123.671L54.4874 121.539L54.7755 120.829H54.7947L55.9855 123.518L57.0419 123.383L55.3133 119.772L56.1584 117.391L55.1212 117.525L54.3145 119.887H54.2953L54.0264 117.659L52.9893 117.794L53.7191 123.806L54.7563 123.671Z" stroke="white" stroke-width="0.363"/>
</g>
<mask id="mask28_1158_1449" style="mask-type:luminance" maskUnits="userSpaceOnUse" x="37" y="59" width="91" height="78">
<path d="M119.21 59.1007L37.3926 69.1495L45.6504 136.384L127.468 126.335L119.21 59.1007Z" fill="white"/>
</mask>
<g mask="url(#mask28_1158_1449)">
<path d="M112.012 124.247L112.684 124.171L112.761 124.747C112.837 125.342 112.703 125.592 112.3 125.65C111.935 125.688 111.781 125.457 111.743 125.073L111.359 122C111.301 121.501 111.493 121.309 111.743 121.29C112.146 121.232 112.357 121.443 112.473 122.346L113.452 122.231L113.414 121.847C113.298 120.944 112.684 120.252 111.647 120.387C110.629 120.521 110.206 121.27 110.321 122.115L110.706 125.208C110.821 126.168 111.474 126.667 112.28 126.571C112.761 126.514 112.991 126.322 113.26 125.918L113.51 126.341L114.009 126.283L113.644 123.249L111.935 123.46L112.012 124.247ZM106.691 127.167L106.23 123.422H106.25L108.036 127.013L108.939 126.898L108.209 120.886L107.268 121.001L107.69 124.44H107.671L105.981 121.155L105.02 121.27L105.75 127.282L106.691 127.167ZM101.121 123.249C101.064 122.807 101.179 122.576 101.602 122.519C102.024 122.461 102.178 122.672 102.235 123.114L102.6 126.149C102.658 126.591 102.543 126.84 102.12 126.879C101.698 126.936 101.544 126.725 101.486 126.283L101.121 123.249ZM100.449 126.437C100.545 127.282 101.141 127.916 102.235 127.781C103.33 127.647 103.733 126.898 103.637 126.053L103.253 122.961C103.138 122.115 102.562 121.482 101.467 121.616C100.372 121.751 99.9689 122.5 100.065 123.345L100.449 126.437ZM98.298 123.479C98.1059 122.634 97.5297 122.096 96.6846 122.192C95.6666 122.327 95.148 122.922 95.2633 123.883C95.4746 125.592 97.6257 125.65 97.7602 126.84C97.7986 127.205 97.5873 127.417 97.2224 127.455C96.8767 127.493 96.6078 127.224 96.4925 126.629L95.5322 126.898C95.6858 127.781 96.3389 128.492 97.2992 128.377C98.2788 128.262 98.8742 127.628 98.7589 126.629C98.5668 124.997 96.3965 124.766 96.262 123.748C96.2236 123.383 96.3773 123.133 96.7038 123.095C96.9343 123.076 97.2416 123.172 97.3376 123.69L98.298 123.479ZM91.6524 124.939L91.5948 124.497C91.4796 123.594 90.8841 122.903 89.847 123.037C88.7522 123.172 88.3296 123.921 88.4449 124.766L88.829 127.858C88.925 128.703 89.5205 129.337 90.6152 129.203C91.6524 129.068 92.075 128.319 91.9597 127.474L91.8829 126.783L90.8457 126.917L90.9418 127.647C90.9802 128.031 90.8841 128.262 90.5192 128.319C90.0967 128.377 89.943 128.166 89.8854 127.724L89.5205 124.689C89.4628 124.247 89.5781 123.998 90.0006 123.959C90.2695 123.921 90.5192 124.113 90.596 124.632L90.6536 125.093L91.6524 124.939ZM84.373 125.304C84.3154 124.862 84.4307 124.632 84.8532 124.574C85.2758 124.516 85.4294 124.728 85.487 125.169L85.852 128.204C85.9096 128.646 85.7943 128.895 85.391 128.934C84.9877 128.972 84.8148 128.78 84.7572 128.338L84.373 125.304ZM83.72 128.492C83.816 129.337 84.4115 129.971 85.5062 129.837C86.601 129.702 87.0044 128.953 86.9083 128.108L86.5242 125.016C86.4282 124.171 85.8328 123.537 84.738 123.671C83.6432 123.806 83.2398 124.555 83.3359 125.4L83.72 128.492ZM78.5918 129.068C78.7262 130.106 79.3985 130.586 80.378 130.47C81.3576 130.355 81.8954 129.702 81.7801 128.684L81.2231 124.19L80.186 124.324L80.743 128.857C80.8006 129.299 80.6469 129.529 80.2628 129.587C79.8787 129.645 79.6866 129.433 79.629 128.992L79.072 124.459L78.0348 124.593L78.5918 129.068ZM76.3062 126.821L76.2486 126.379C76.1333 125.477 75.5379 124.785 74.5008 124.92C73.406 125.054 72.9834 125.803 73.0987 126.648L73.4828 129.741C73.5788 130.586 74.1742 131.22 75.269 131.085C76.3062 130.951 76.7287 130.202 76.6135 129.356L76.5367 128.665L75.4995 128.799L75.5955 129.529C75.6532 129.913 75.5379 130.144 75.173 130.202C74.7504 130.259 74.5968 130.048 74.5392 129.606L74.155 126.571C74.0974 126.13 74.2127 125.899 74.616 125.842C74.8849 125.803 75.1538 125.995 75.2114 126.495L75.269 126.956L76.3062 126.821ZM68.9884 125.688L67.9512 125.822L68.6811 131.834L69.7183 131.7L68.9884 125.688ZM63.9946 127.801C63.937 127.359 64.0523 127.109 64.4748 127.071C64.8974 127.013 65.051 127.224 65.1086 127.666L65.4736 130.701C65.5312 131.143 65.4159 131.392 64.9934 131.431C64.5708 131.488 64.4172 131.277 64.3596 130.835L63.9946 127.801ZM63.3416 131.008C63.4376 131.853 64.0331 132.487 65.1278 132.353C66.2226 132.218 66.626 131.469 66.5299 130.624L66.1458 127.532C66.0498 126.687 65.4544 126.053 64.3596 126.187C63.2648 126.322 62.8614 127.071 62.9575 127.916L63.3416 131.008ZM59.9996 131.027L58.7128 126.956L57.6948 127.09L59.6923 132.929L60.7295 132.794L61.2481 126.629L60.2301 126.764L59.9996 131.027Z" fill="#72BF44"/>
</g>
<mask id="mask29_1158_1449" style="mask-type:luminance" maskUnits="userSpaceOnUse" x="37" y="59" width="91" height="78">
<path d="M119.21 59.1007L37.3926 69.1495L45.6504 136.384L127.468 126.335L119.21 59.1007Z" fill="white"/>
</mask>
<g mask="url(#mask29_1158_1449)">
<path d="M64.1499 125.822L64.6877 124.708L65.8017 124.574L64.8606 125.726L64.1499 125.822Z" fill="#72BF44"/>
</g>
<mask id="mask30_1158_1449" style="mask-type:luminance" maskUnits="userSpaceOnUse" x="37" y="59" width="91" height="78">
<path d="M119.21 59.1007L37.3926 69.1495L45.6504 136.384L127.468 126.335L119.21 59.1007Z" fill="white"/>
</mask>
<g mask="url(#mask30_1158_1449)">
<path d="M65.5708 125.419L66.3199 125.323L66.3967 125.918C66.4351 126.168 66.3967 126.36 66.2815 126.495C66.1662 126.648 65.9934 126.725 65.7437 126.764L65.7052 126.456C65.8013 126.437 65.8781 126.399 65.9357 126.322C65.9934 126.245 66.0126 126.187 66.0126 126.091L65.686 126.13L65.5708 125.419Z" fill="#72BF44"/>
</g>
<mask id="mask31_1158_1449" style="mask-type:luminance" maskUnits="userSpaceOnUse" x="37" y="59" width="91" height="78">
<path d="M119.21 59.1007L37.3926 69.1495L45.6504 136.384L127.468 126.335L119.21 59.1007Z" fill="white"/>
</mask>
<g mask="url(#mask31_1158_1449)">
<path d="M84.2011 122.442L85.0846 122.327L86.0449 123.249L85.2382 123.364L84.7004 122.826L84.3163 123.46L83.5288 123.575L84.2011 122.442Z" fill="#72BF44"/>
</g>
<mask id="mask32_1158_1449" style="mask-type:luminance" maskUnits="userSpaceOnUse" x="37" y="59" width="91" height="78">
<path d="M119.21 59.1007L37.3926 69.1495L45.6504 136.384L127.468 126.335L119.21 59.1007Z" fill="white"/>
</mask>
<g mask="url(#mask32_1158_1449)">
<path d="M100.892 120.387L101.775 120.272L102.716 121.213L101.91 121.309L101.391 120.79L101.007 121.424L100.2 121.52L100.892 120.387Z" fill="#72BF44"/>
</g>
<mask id="mask33_1158_1449" style="mask-type:luminance" maskUnits="userSpaceOnUse" x="37" y="59" width="91" height="78">
<path d="M119.21 59.1007L37.3926 69.1495L45.6504 136.384L127.468 126.335L119.21 59.1007Z" fill="white"/>
</mask>
<g mask="url(#mask33_1158_1449)">
<path d="M102.428 121.213L102.966 120.099L104.06 119.964L103.138 121.136L102.428 121.213Z" fill="#72BF44"/>
</g>
<mask id="mask34_1158_1449" style="mask-type:luminance" maskUnits="userSpaceOnUse" x="30" y="55" width="97" height="87">
<path d="M112.405 55.5345L30.2402 78.7991L44.4514 141.212L126.616 117.948L112.405 55.5345Z" fill="white"/>
</mask>
<g mask="url(#mask34_1158_1449)">
<path d="M86.0292 130.279L85.2129 130.397L85.2926 131.16L86.109 131.042L86.0292 130.279Z" fill="#72BF44"/>
</g>
<mask id="mask35_1158_1449" style="mask-type:luminance" maskUnits="userSpaceOnUse" x="37" y="59" width="91" height="78">
<path d="M119.21 59.1007L37.3926 69.1495L45.6504 136.384L127.468 126.335L119.21 59.1007Z" fill="white"/>
</mask>
<g mask="url(#mask35_1158_1449)">
<path d="M58.482 115.681L59.3655 115.585L60.3066 116.507L59.4999 116.603L58.9813 116.085L58.5972 116.718L57.7905 116.814L58.482 115.681Z" fill="#D2AA56"/>
</g>
<mask id="mask36_1158_1449" style="mask-type:luminance" maskUnits="userSpaceOnUse" x="37" y="59" width="91" height="78">
<path d="M119.21 59.1007L37.3926 69.1495L45.6504 136.384L127.468 126.335L119.21 59.1007Z" fill="white"/>
</mask>
<g mask="url(#mask36_1158_1449)">
<path d="M60.0005 116.507L60.5575 115.393L61.6523 115.259L60.7303 116.43L60.0005 116.507Z" fill="#D2AA56"/>
</g>
<mask id="mask37_1158_1449" style="mask-type:luminance" maskUnits="userSpaceOnUse" x="37" y="59" width="91" height="78">
<path d="M119.21 59.1007L37.3926 69.1495L45.6504 136.384L127.468 126.335L119.21 59.1007Z" fill="white"/>
</mask>
<g mask="url(#mask37_1158_1449)">
<path d="M74.521 113.722L75.4045 113.607L76.3457 114.548L75.539 114.644L75.0204 114.106L74.6171 114.759L73.8296 114.855L74.521 113.722Z" fill="#D2AA56"/>
</g>
<mask id="mask38_1158_1449" style="mask-type:luminance" maskUnits="userSpaceOnUse" x="37" y="59" width="91" height="78">
<path d="M119.21 59.1007L37.3926 69.1495L45.6504 136.384L127.468 126.335L119.21 59.1007Z" fill="white"/>
</mask>
<g mask="url(#mask38_1158_1449)">
<path d="M75.9814 114.548L76.5192 113.434L77.614 113.299L76.6921 114.471L75.9814 114.548Z" fill="#D2AA56"/>
</g>
<mask id="mask39_1158_1449" style="mask-type:luminance" maskUnits="userSpaceOnUse" x="37" y="59" width="91" height="78">
<path d="M119.21 59.1007L37.3926 69.1495L45.6504 136.384L127.468 126.335L119.21 59.1007Z" fill="white"/>
</mask>
<g mask="url(#mask39_1158_1449)">
<path d="M108.344 110.591L108.882 109.477L109.976 109.343L109.054 110.495L108.344 110.591Z" fill="#D2AA56"/>
</g>
<mask id="mask40_1158_1449" style="mask-type:luminance" maskUnits="userSpaceOnUse" x="37" y="59" width="91" height="78">
<path d="M119.21 59.1007L37.3926 69.1495L45.6504 136.384L127.468 126.335L119.21 59.1007Z" fill="white"/>
</mask>
<g mask="url(#mask40_1158_1449)">
<path d="M110.187 110.015L110.936 109.919L111.013 110.514C111.032 110.764 110.994 110.956 110.898 111.091C110.782 111.244 110.61 111.321 110.36 111.36L110.321 111.052C110.417 111.033 110.494 110.995 110.552 110.918C110.61 110.841 110.629 110.783 110.629 110.687L110.283 110.726L110.187 110.015Z" fill="#D2AA56"/>
</g>
<mask id="mask41_1158_1449" style="mask-type:luminance" maskUnits="userSpaceOnUse" x="37" y="59" width="91" height="78">
<path d="M119.21 59.1007L37.3926 69.1495L45.6504 136.384L127.468 126.335L119.21 59.1007Z" fill="white"/>
</mask>
<g mask="url(#mask41_1158_1449)">
<path d="M115.584 112.147L115.527 111.705C115.411 110.803 114.816 110.111 113.779 110.246C112.684 110.38 112.281 111.129 112.377 111.974L112.761 115.067C112.857 115.912 113.452 116.545 114.547 116.411C115.584 116.277 116.007 115.528 115.891 114.682L115.815 113.991L114.777 114.125L114.873 114.855C114.912 115.239 114.816 115.47 114.451 115.528C114.028 115.585 113.875 115.374 113.817 114.932L113.452 111.897C113.395 111.456 113.51 111.225 113.913 111.168C114.182 111.129 114.432 111.321 114.509 111.821L114.566 112.282L115.584 112.147ZM107.652 115.643C107.786 116.68 108.458 117.16 109.438 117.045C110.418 116.93 110.955 116.277 110.84 115.259L110.283 110.764L109.246 110.899L109.803 115.431C109.861 115.873 109.707 116.104 109.323 116.161C108.939 116.2 108.747 116.008 108.689 115.566L108.132 111.033L107.095 111.168L107.652 115.643ZM103.753 117.659L103.426 114.99L104.521 114.855L104.848 117.525L105.885 117.391L105.155 111.379L104.118 111.513L104.425 113.953L103.311 114.087L103.004 111.648L101.967 111.782L102.696 117.794L103.753 117.659ZM99.1432 118.216L100.18 118.082L99.5465 112.973L100.545 112.858L100.43 111.955L97.3761 112.32L97.4914 113.223L98.4901 113.107L99.1432 118.216ZM93.8613 112.781L92.8241 112.915L93.554 118.927L94.5911 118.793L93.8613 112.781ZM89.2901 116.93C89.4821 116.91 89.6934 116.872 89.8279 116.834L90.865 119.234L91.9214 119.1L90.7114 116.488C91.0379 116.296 91.3836 115.854 91.2492 114.894C91.0955 113.607 90.4425 113.203 89.2709 113.338L87.8111 113.511L88.541 119.523L89.5782 119.388L89.2901 116.93ZM88.9636 114.241L89.3285 114.202C89.8855 114.125 90.116 114.317 90.212 115.028C90.308 115.739 90.116 115.969 89.559 116.046L89.194 116.085L88.9636 114.241ZM84.9685 119.964L86.0057 119.83L85.3719 114.721L86.3706 114.606L86.2554 113.703L83.2015 114.068L83.3168 114.971L84.3155 114.855L84.9685 119.964ZM79.6867 114.51L78.6495 114.644L79.3794 120.656L80.4165 120.521L79.6867 114.51ZM74.6929 116.641C74.6353 116.2 74.7505 115.969 75.1539 115.912C75.5764 115.854 75.7301 116.065 75.7877 116.507L76.1526 119.561C76.2103 120.003 76.095 120.233 75.6725 120.291C75.2499 120.348 75.0963 120.137 75.0386 119.695L74.6929 116.641ZM74.0399 119.83C74.1359 120.675 74.7313 121.309 75.8261 121.174C76.9209 121.04 77.3242 120.291 77.2282 119.446L76.8441 116.353C76.748 115.508 76.1526 114.874 75.0578 115.009C73.9631 115.143 73.5597 115.892 73.6558 116.738L74.0399 119.83ZM70.0449 121.808L69.5839 118.063H69.6031L71.3894 121.654L72.2921 121.539L71.5622 115.528L70.6211 115.643L71.0436 119.081H71.0244L69.3342 115.796L68.3739 115.912L69.1037 121.923L70.0449 121.808ZM63.6682 122.576L64.7054 122.442L64.0716 117.333L65.0703 117.218L64.9551 116.315L61.9012 116.68L62.0164 117.583L63.0152 117.448L63.6682 122.576ZM61.3058 122.864L61.1906 121.962L59.3275 122.192L59.1162 120.444L60.4607 120.291L60.3455 119.388L59.001 119.542L58.8089 118.005L60.5567 117.794L60.4415 116.891L57.6565 117.237L58.3864 123.249L61.3058 122.864ZM54.7563 123.671L54.4874 121.539L54.7755 120.829H54.7947L55.9855 123.518L57.0419 123.383L55.3133 119.772L56.1584 117.391L55.1212 117.525L54.3145 119.887H54.2953L54.0264 117.659L52.9893 117.794L53.7191 123.806L54.7563 123.671Z" fill="#D2AA56"/>
</g>
<mask id="mask42_1158_1449" style="mask-type:luminance" maskUnits="userSpaceOnUse" x="37" y="59" width="91" height="78">
<path d="M119.21 59.1007L37.3926 69.1495L45.6504 136.384L127.468 126.335L119.21 59.1007Z" fill="white"/>
</mask>
<g mask="url(#mask42_1158_1449)">
<path d="M79.7443 76.8643C81.5306 68.7398 84.6036 66.7999 90.9995 63.3043C96.8576 61.23 119.253 59.4053 119.253 59.4053L122.038 83.894C123.19 92.0184 117.582 103.35 106.711 104.676C95.8396 106.001 61.4211 110.246 61.4211 110.246C48.5909 110.188 42.464 107.326 40.4665 93.3245C38.469 79.3228 37.5278 69.4697 37.5278 69.4697L58.9242 66.8384C63.457 66.3198 75.1731 65.878 79.7443 76.8643Z" fill="white"/>
</g>
<mask id="mask43_1158_1449" style="mask-type:luminance" maskUnits="userSpaceOnUse" x="37" y="59" width="91" height="78">
<path d="M119.21 59.1007L37.3926 69.1495L45.6504 136.384L127.468 126.335L119.21 59.1007Z" fill="white"/>
</mask>
<g mask="url(#mask43_1158_1449)">
<path fill-rule="evenodd" clip-rule="evenodd" d="M86.8125 103.965L103.753 101.891C108.42 101.315 112.434 98.8945 115.143 95.4757C117.851 92.0376 119.234 87.6009 118.657 82.972L116.545 65.7628C108.92 69.873 102.697 75.4046 97.8372 81.6276C92.4593 88.5228 88.7908 96.3015 86.8125 103.965ZM114.528 63.0738L97.165 65.2058C92.4978 65.782 88.4835 68.202 85.7754 71.6208C83.0672 75.0589 81.6843 79.4956 82.2605 84.1244L84.2965 100.642C86.486 93.4013 90.1353 86.122 95.2251 79.5916C100.238 73.1382 106.672 67.3953 114.528 63.0738Z" fill="#72BF44"/>
</g>
<mask id="mask44_1158_1449" style="mask-type:luminance" maskUnits="userSpaceOnUse" x="37" y="59" width="91" height="78">
<path d="M119.21 59.1007L37.3926 69.1495L45.6504 136.384L127.468 126.335L119.21 59.1007Z" fill="white"/>
</mask>
<g mask="url(#mask44_1158_1449)">
<path fill-rule="evenodd" clip-rule="evenodd" d="M43.7126 94.1695L43.7318 94.2271L43.751 94.3424L43.7894 94.5152L43.8278 94.6497L43.847 94.7073L43.8854 94.8033L43.9046 94.8994L43.943 94.9954L43.9622 95.0722L44.0007 95.1683L44.0391 95.2643L44.0775 95.3603L44.0967 95.418L44.1351 95.5332L44.1927 95.7061V95.7253L44.2119 95.7829L44.2503 95.8981L44.2695 95.975L44.308 96.0902L44.3464 96.167L44.3848 96.2631L44.4232 96.3591L44.4616 96.4743L44.4808 96.5512L44.5192 96.6664L44.5577 96.7432L44.6345 96.9161V96.9353L44.6537 96.9929L44.7113 97.1082L44.7497 97.185L44.7881 97.281L44.8265 97.3578L44.8842 97.4731L44.9034 97.5307L44.961 97.6267L44.9994 97.7036L45.0378 97.7804L45.0954 97.8764L45.1723 98.0301L45.2107 98.1069L45.2683 98.2029L45.3067 98.299L45.3451 98.3758L45.4028 98.4718L45.4604 98.5487L45.4988 98.6255L45.5564 98.7407L45.5948 98.7984L45.6524 98.8944L45.6909 98.952V98.9712L45.7869 99.1249L45.8445 99.2017L45.9021 99.2785L45.9405 99.3553L46.0174 99.4706L46.0558 99.5282L46.1134 99.6243L46.171 99.7011L46.2479 99.7971L46.2863 99.8547L46.3631 99.9508L46.4207 100.028C46.4591 100.066 46.4783 100.124 46.5167 100.162L46.536 100.181L46.6128 100.296L46.6704 100.373L46.728 100.45L46.7856 100.527L46.8433 100.604L46.9009 100.661L46.9777 100.757L47.0353 100.815L47.1314 100.93L47.1506 100.95L47.2658 101.084V101.103L47.3042 101.142L47.3811 101.218L47.4387 101.295L47.5155 101.372L47.5539 101.43L47.6499 101.526L47.6884 101.564L47.7844 101.66L47.842 101.718L47.9573 101.833L48.0917 101.967L48.1301 102.006L48.2261 102.102L48.2838 102.16L48.3606 102.236L48.4182 102.294L48.495 102.371L48.5527 102.428L48.6679 102.544L48.6871 102.563C48.7447 102.601 48.7831 102.659 48.8408 102.697C48.8984 102.736 48.9368 102.774 48.9752 102.832L49.0136 102.87L49.1289 102.966L49.1865 103.005L49.2825 103.101L49.3209 103.139L49.4362 103.235L49.4554 103.254C49.5514 103.331 49.6667 103.427 49.7627 103.504L49.9163 103.619C49.974 103.658 50.0124 103.696 50.07 103.734L50.1084 103.754L50.2237 103.831L50.2813 103.869L50.3965 103.946L50.4349 103.965L50.5694 104.061L50.6078 104.08L50.7422 104.176L50.7614 104.195C50.8767 104.272 50.9919 104.349 51.1072 104.407C51.1648 104.445 51.2032 104.464 51.2608 104.503L51.3184 104.541L51.4337 104.618L51.4913 104.656L51.6065 104.733L51.6642 104.752L51.7986 104.829L51.837 104.848L51.9715 104.925L52.0099 104.945C52.0675 104.983 52.1251 105.002 52.1827 105.041L52.3556 105.137L52.394 105.156L52.5477 105.233L52.5861 105.252L52.7205 105.309L52.7974 105.348L52.8934 105.405L52.9702 105.444L53.0663 105.482L53.1431 105.521L53.2583 105.578L53.3352 105.617L53.4888 105.694L53.6617 105.77L53.7385 105.809L53.8537 105.847L53.9306 105.866L54.0458 105.924L54.1034 105.943L54.2379 105.982L54.3147 106.001L54.4107 106.039L54.5068 106.078L54.5836 106.097L54.6988 106.135L54.8717 106.193L55.0446 106.251L55.1598 106.289L55.2366 106.308L55.3519 106.347L55.4287 106.366L55.5247 106.404L55.6016 106.423L55.6976 106.443L55.7936 106.462L55.9089 106.5L55.9665 106.519L56.1009 106.558L56.2738 106.596C56.3314 106.616 56.389 106.616 56.4466 106.635H56.4659L56.5235 106.654L56.6387 106.673L56.7348 106.692L56.8116 106.712L56.9076 106.731L57.0036 106.75L57.0805 106.769L57.1957 106.788L57.2725 106.808L57.3878 106.827L57.503 106.846L57.6759 106.884C57.7335 106.884 57.7911 106.904 57.8487 106.904L57.964 106.923L58.06 106.942L58.156 106.961L58.2329 106.98L58.3481 107H58.4442H58.5786H58.6554L58.7707 107.019H58.8475H58.9627L59.1548 107.038H59.3469H59.3661H59.4237H59.5389H59.635H59.7502H59.827H59.9423H60.0575H60.1344H60.2688H60.3264H60.4609H60.6145H60.6721C57.6759 104.253 56.8884 99.5666 56.3698 95.5908C52.6053 96.1478 47.4387 96.7048 43.7126 94.1695ZM59.9231 69.7769L40.8892 72.1201L42.4641 85.0463C43.5781 94.0543 51.6834 92.9595 56.4274 92.3065C57.0805 92.2104 57.4838 92.1528 57.5798 92.1528L59.2124 91.9415L59.4237 93.5933L59.4813 94.1119C60.1344 99.4514 61.0563 107.134 69.4688 106.097L81.3962 104.637L78.957 84.5469C78.3808 79.9181 75.9607 75.9423 72.5035 73.2533C69.0655 70.5836 64.5903 69.2007 59.9231 69.7769Z" fill="#D2AA56"/>
</g>
</svg>
